<svg width="25" height="24" viewBox="0 0 25 24" fill="none" xmlns="http://www.w3.org/2000/svg">
<mask id="mask0_5233_1610" style="mask-type:alpha" maskUnits="userSpaceOnUse" x="0" y="0" width="25" height="24">
<rect x="0.5" width="24" height="24" fill="#D9D9D9"/>
</mask>
<g mask="url(#mask0_5233_1610)">
<path d="M13.875 21.8253L7.5 20.0253V11.0003H9.1C9.21667 11.0003 9.33333 11.0128 9.45 11.0378C9.56667 11.0628 9.68333 11.092 9.8 11.1253L16.725 13.7003C16.9583 13.7836 17.1458 13.9336 17.2875 14.1503C17.4292 14.367 17.5 14.592 17.5 14.8253C17.5 15.1753 17.3792 15.4586 17.1375 15.6753C16.8958 15.892 16.6167 16.0003 16.3 16.0003H13.675C13.5917 16.0003 13.5292 15.9961 13.4875 15.9878C13.4458 15.9795 13.3917 15.9586 13.325 15.9253L12.2 15.5003C12.0667 15.4503 11.9333 15.4586 11.8 15.5253C11.6667 15.592 11.5833 15.6836 11.55 15.8003C11.5167 15.9336 11.525 16.0586 11.575 16.1753C11.625 16.292 11.7167 16.3753 11.85 16.4253L13.325 16.9503C13.3583 16.967 13.4083 16.9795 13.475 16.9878C13.5417 16.9961 13.6 17.0003 13.65 17.0003H20.5C21.0333 17.0003 21.5 17.192 21.9 17.5753C22.3 17.9586 22.5 18.4336 22.5 19.0003L15.125 21.7753C14.9583 21.842 14.7542 21.8795 14.5125 21.8878C14.2708 21.8961 14.0583 21.8753 13.875 21.8253ZM1.5 20.0003V13.0003C1.5 12.4503 1.69583 11.9795 2.0875 11.5878C2.47917 11.1961 2.95 11.0003 3.5 11.0003C4.05 11.0003 4.52083 11.1961 4.9125 11.5878C5.30417 11.9795 5.5 12.4503 5.5 13.0003V20.0003C5.5 20.5503 5.30417 21.0211 4.9125 21.4128C4.52083 21.8045 4.05 22.0003 3.5 22.0003C2.95 22.0003 2.47917 21.8045 2.0875 21.4128C1.69583 21.0211 1.5 20.5503 1.5 20.0003ZM13.425 8.22531L18.4 3.2753C18.5833 3.09197 18.8125 2.99614 19.0875 2.9878C19.3625 2.97947 19.6 3.0753 19.8 3.2753C19.9833 3.45864 20.075 3.69197 20.075 3.9753C20.075 4.25864 19.9833 4.49197 19.8 4.6753L14.125 10.3503C13.925 10.5503 13.6917 10.6503 13.425 10.6503C13.1583 10.6503 12.925 10.5503 12.725 10.3503L9.875 7.5003C9.675 7.3003 9.57917 7.06697 9.5875 6.8003C9.59583 6.53364 9.7 6.3003 9.9 6.1003C10.1 5.91697 10.3333 5.82114 10.6 5.8128C10.8667 5.80447 11.1 5.9003 11.3 6.1003L13.425 8.22531Z" fill="#EAE1D9"/>
</g>
</svg>
