<svg width="16" height="16" viewBox="0 0 16 16" fill="none" xmlns="http://www.w3.org/2000/svg">
<path d="M8.00013 11.3335C8.18902 11.3335 8.34735 11.2696 8.47513 11.1418C8.60291 11.014 8.6668 10.8557 8.6668 10.6668C8.6668 10.4779 8.60291 10.3196 8.47513 10.1918C8.34735 10.064 8.18902 10.0001 8.00013 10.0001C7.81124 10.0001 7.65291 10.064 7.52513 10.1918C7.39735 10.3196 7.33346 10.4779 7.33346 10.6668C7.33346 10.8557 7.39735 11.014 7.52513 11.1418C7.65291 11.2696 7.81124 11.3335 8.00013 11.3335ZM7.33346 8.6668H8.6668V4.6668H7.33346V8.6668ZM8.00013 15.5335L5.7668 13.3335H2.6668V10.2335L0.466797 8.00013L2.6668 5.7668V2.6668H5.7668L8.00013 0.466797L10.2335 2.6668H13.3335V5.7668L15.5335 8.00013L13.3335 10.2335V13.3335H10.2335L8.00013 15.5335ZM8.00013 13.6668L9.6668 12.0001H12.0001V9.6668L13.6668 8.00013L12.0001 6.33346V4.00013H9.6668L8.00013 2.33346L6.33346 4.00013H4.00013V6.33346L2.33346 8.00013L4.00013 9.6668V12.0001H6.33346L8.00013 13.6668Z" fill="#BA1A1A"/>
</svg>
