<svg width="80" height="80" viewBox="0 0 80 80" fill="none" xmlns="http://www.w3.org/2000/svg">
<mask id="mask0_4064_4622" style="mask-type:alpha" maskUnits="userSpaceOnUse" x="0" y="0" width="80" height="80">
<rect width="80" height="80" fill="#D9D9D9"/>
</mask>
<g mask="url(#mask0_4064_4622)">
<path d="M40 56.6665C40.9444 56.6665 41.7361 56.3471 42.375 55.7082C43.0138 55.0693 43.3333 54.2776 43.3333 53.3332C43.3333 52.3887 43.0138 51.5971 42.375 50.9582C41.7361 50.3193 40.9444 49.9998 40 49.9998C39.0555 49.9998 38.2638 50.3193 37.625 50.9582C36.9861 51.5971 36.6666 52.3887 36.6666 53.3332C36.6666 54.2776 36.9861 55.0693 37.625 55.7082C38.2638 56.3471 39.0555 56.6665 40 56.6665ZM40 43.3332C40.9444 43.3332 41.7361 43.0137 42.375 42.3748C43.0138 41.736 43.3333 40.9443 43.3333 39.9998V26.6665C43.3333 25.7221 43.0138 24.9304 42.375 24.2915C41.7361 23.6526 40.9444 23.3332 40 23.3332C39.0555 23.3332 38.2638 23.6526 37.625 24.2915C36.9861 24.9304 36.6666 25.7221 36.6666 26.6665V39.9998C36.6666 40.9443 36.9861 41.736 37.625 42.3748C38.2638 43.0137 39.0555 43.3332 40 43.3332ZM40 73.3332C35.3888 73.3332 31.0555 72.4582 27 70.7082C22.9444 68.9582 19.4166 66.5832 16.4166 63.5832C13.4166 60.5832 11.0416 57.0554 9.29163 52.9998C7.54163 48.9443 6.66663 44.6109 6.66663 39.9998C6.66663 35.3887 7.54163 31.0554 9.29163 26.9998C11.0416 22.9443 13.4166 19.4165 16.4166 16.4165C19.4166 13.4165 22.9444 11.0415 27 9.2915C31.0555 7.5415 35.3888 6.6665 40 6.6665C44.6111 6.6665 48.9444 7.5415 53 9.2915C57.0555 11.0415 60.5833 13.4165 63.5833 16.4165C66.5833 19.4165 68.9583 22.9443 70.7083 26.9998C72.4583 31.0554 73.3333 35.3887 73.3333 39.9998C73.3333 44.6109 72.4583 48.9443 70.7083 52.9998C68.9583 57.0554 66.5833 60.5832 63.5833 63.5832C60.5833 66.5832 57.0555 68.9582 53 70.7082C48.9444 72.4582 44.6111 73.3332 40 73.3332ZM40 66.6665C47.4444 66.6665 53.75 64.0832 58.9166 58.9165C64.0833 53.7498 66.6666 47.4443 66.6666 39.9998C66.6666 32.5554 64.0833 26.2498 58.9166 21.0832C53.75 15.9165 47.4444 13.3332 40 13.3332C32.5555 13.3332 26.25 15.9165 21.0833 21.0832C15.9166 26.2498 13.3333 32.5554 13.3333 39.9998C13.3333 47.4443 15.9166 53.7498 21.0833 58.9165C26.25 64.0832 32.5555 66.6665 40 66.6665Z" fill="#BA1A1A"/>
</g>
</svg>
