<svg width="208" height="220" viewBox="0 0 208 220" fill="none" xmlns="http://www.w3.org/2000/svg">
<mask id="mask0_6230_8839" style="mask-type:alpha" maskUnits="userSpaceOnUse" x="10" y="0" width="69" height="69">
<rect x="10.2969" y="26.5774" width="49.4257" height="49.4257" transform="rotate(-32.5289 10.2969 26.5774)" fill="#D9D9D9"/>
</mask>
<g mask="url(#mask0_6230_8839)">
<path d="M48.8151 28.7577L35.5918 25.8332C35.8862 25.4012 36.2155 25.0079 36.5797 24.6535C36.944 24.2991 37.3431 23.9834 37.7772 23.7066C39.4846 22.6176 41.2981 22.2854 43.2176 22.71C45.1371 23.1345 46.6413 24.2005 47.7302 25.9078C48.0071 26.3419 48.2359 26.7965 48.4167 27.2714C48.5975 27.7464 48.7303 28.2419 48.8151 28.7577ZM39.3909 49.7903C40.1469 47.7204 41.2289 45.7785 42.6368 43.9646C44.0447 42.1507 45.747 40.607 47.7438 39.3335C48.2647 39.0013 48.7777 38.7046 49.2829 38.4435C49.788 38.1824 50.3288 37.9291 50.905 37.6837L44.6488 36.3001C43.178 36.9939 41.6487 37.1652 40.0609 36.8141C38.4732 36.4629 37.1588 35.6626 36.1177 34.4133L28.0131 32.6208C27.8438 34.3979 27.9627 36.1642 28.3699 37.9196C28.777 39.6751 29.4974 41.3631 30.531 42.9837C31.6199 44.6911 32.9264 46.1172 34.4504 47.2621C35.9745 48.4071 37.6213 49.2498 39.3909 49.7903ZM60.7867 35.656C60.956 33.8789 60.8443 32.108 60.4516 30.3433C60.0589 28.5786 59.3458 26.886 58.3122 25.2654C55.8575 21.4165 52.4144 19.0021 47.9829 18.022C43.5515 17.0419 39.4113 17.7792 35.5624 20.2339C33.9419 21.2675 32.5815 22.5015 31.4812 23.936C30.3809 25.3705 29.5329 26.9292 28.937 28.6119L60.7867 35.656ZM55.4955 51.4878C53.1225 53.0013 50.5891 53.9759 47.8952 54.4116C45.2013 54.8474 42.5628 54.7796 39.9797 54.2083C37.3967 53.637 34.9757 52.5858 32.7168 51.0547C30.4579 49.5235 28.5717 47.5715 27.0583 45.1985C25.5264 42.7966 24.5472 40.2559 24.1207 37.5764C23.6941 34.897 23.7665 32.2657 24.3378 29.6827C24.9091 27.0997 25.9603 24.6787 27.4915 22.4198C29.0226 20.1609 30.9747 18.2747 33.3476 16.7613C35.7496 15.2294 38.2902 14.2502 40.9697 13.8236C43.6491 13.3971 46.2804 13.4695 48.8634 14.0408C51.4465 14.612 53.8628 15.656 56.1125 17.1727C58.3622 18.6894 60.253 20.6487 61.7849 23.0506C63.2983 25.4236 64.2729 27.957 64.7086 30.651C65.1444 33.3449 65.0766 35.9833 64.5054 38.5664C63.9341 41.1494 62.8901 43.5658 61.3734 45.8155C59.8567 48.0651 57.8974 49.9559 55.4955 51.4878Z" fill="#1F1B16"/>
</g>
<mask id="mask1_6230_8839" style="mask-type:alpha" maskUnits="userSpaceOnUse" x="0" y="11" width="208" height="209">
<rect y="11.3267" width="208" height="208" fill="#D9D9D9"/>
</mask>
<g mask="url(#mask1_6230_8839)">
<path d="M81.466 154.327L103.999 131.793L126.533 154.327L138.666 142.193L116.133 119.66L138.666 97.1267L126.533 84.9933L103.999 107.527L81.466 84.9933L69.3327 97.1267L91.866 119.66L69.3327 142.193L81.466 154.327ZM60.666 193.327C55.8993 193.327 51.8188 191.629 48.4243 188.235C45.0299 184.841 43.3327 180.76 43.3327 175.993V63.3267H34.666V45.9933H77.9994V37.3267H129.999V45.9933H173.333V63.3267H164.666V175.993C164.666 180.76 162.969 184.841 159.574 188.235C156.18 191.629 152.099 193.327 147.333 193.327H60.666Z" fill="#5D4012"/>
</g>
</svg>
