<svg width="208" height="208" viewBox="0 0 208 208" fill="none" xmlns="http://www.w3.org/2000/svg">
<circle opacity="0.5" cx="104" cy="104" r="104" fill="#DDC2A1"/>
<mask id="mask0_5116_3127" style="mask-type:alpha" maskUnits="userSpaceOnUse" x="32" y="32" width="144" height="144">
<rect x="32" y="32" width="144" height="144" fill="#D9D9D9"/>
</mask>
<g mask="url(#mask0_5116_3127)">
<path d="M116 134V86C116 84.3 116.575 82.875 117.725 81.725C118.875 80.575 120.3 80 122 80H164C165.7 80 167.125 80.575 168.275 81.725C169.425 82.875 170 84.3 170 86V116C170 117.7 169.425 119.125 168.275 120.275C167.125 121.425 165.7 122 164 122H128L116 134ZM74 170C70.7 170 67.875 168.825 65.525 166.475C63.175 164.125 62 161.3 62 158V50C62 46.7 63.175 43.875 65.525 41.525C67.875 39.175 70.7 38 74 38H134C137.3 38 140.125 39.175 142.475 41.525C144.825 43.875 146 46.7 146 50V74H134V68H74V140H134V134H146V158C146 161.3 144.825 164.125 142.475 166.475C140.125 168.825 137.3 170 134 170H74Z" fill="#3E2E16"/>
</g>
</svg>
