<svg width="40" height="40" viewBox="0 0 40 40" fill="none" xmlns="http://www.w3.org/2000/svg">
<path d="M2.5 18.7501C2.50207 16.7616 3.29291 14.8551 4.69898 13.449C6.10506 12.043 8.01151 11.2521 10 11.2501H16.2188C16.6734 11.2235 24.5969 10.6657 32.1422 4.33755C32.5066 4.03154 32.9507 3.83587 33.4224 3.77351C33.8941 3.71116 34.3738 3.78472 34.8052 3.98555C35.2365 4.18638 35.6016 4.50614 35.8576 4.90727C36.1135 5.3084 36.2496 5.77423 36.25 6.25005L36.25 31.2501C36.2499 31.726 36.114 32.192 35.8582 32.5934C35.6024 32.9948 35.2373 33.3148 34.8059 33.5158C34.3745 33.7168 33.8946 33.7905 33.4228 33.7282C32.9509 33.6659 32.5067 33.4702 32.1422 33.1641C26.2406 28.2141 20.1109 26.7954 17.5 26.3985V31.3547C17.5005 31.7667 17.3992 32.1724 17.2052 32.5358C17.0111 32.8991 16.7302 33.2089 16.3875 33.4376L14.6688 34.5829C14.3365 34.8046 13.956 34.9435 13.5591 34.988C13.1622 35.0324 12.7604 34.9811 12.3873 34.8384C12.0143 34.6956 11.6809 34.4655 11.4151 34.1675C11.1492 33.8694 10.9587 33.5119 10.8594 33.1251L9.02031 26.1938C7.21605 25.9537 5.56035 25.0667 4.36103 23.6975C3.16171 22.3283 2.50038 20.5702 2.5 18.7501ZM33.75 31.2391L33.75 6.25005C27.0609 11.861 20.2141 13.2813 17.5 13.6313L17.5 23.8626C20.2109 24.2188 27.0562 25.636 33.75 31.2391ZM13.2813 32.4891V32.5063L15 31.361V26.2501H11.625L13.2813 32.4891ZM10 23.7501H15L15 13.7501H10C8.67392 13.7501 7.40215 14.2768 6.46447 15.2145C5.52679 16.1522 5 17.424 5 18.7501C5 20.0761 5.52679 21.3479 6.46447 22.2856C7.40215 23.2233 8.67392 23.7501 10 23.7501Z" fill="#4F4539"/>
</svg>
