<svg width="19" height="21" viewBox="0 0 19 21" fill="none" xmlns="http://www.w3.org/2000/svg">
<path d="M4.3998 6.9999C4.3998 6.84077 4.46302 6.68816 4.57554 6.57564C4.68806 6.46312 4.84067 6.3999 4.9998 6.3999H10.9998C11.1589 6.3999 11.3115 6.46312 11.4241 6.57564C11.5366 6.68816 11.5998 6.84077 11.5998 6.9999C11.5998 7.15903 11.5366 7.31164 11.4241 7.42417C11.3115 7.53669 11.1589 7.5999 10.9998 7.5999H4.9998C4.84067 7.5999 4.68806 7.53669 4.57554 7.42417C4.46302 7.31164 4.3998 7.15903 4.3998 6.9999ZM4.9998 9.9999C4.84067 9.9999 4.68806 10.0631 4.57554 10.1756C4.46302 10.2882 4.3998 10.4408 4.3998 10.5999C4.3998 10.759 4.46302 10.9116 4.57554 11.0242C4.68806 11.1367 4.84067 11.1999 4.9998 11.1999H10.9998C11.1589 11.1999 11.3115 11.1367 11.4241 11.0242C11.5366 10.9116 11.5998 10.759 11.5998 10.5999C11.5998 10.4408 11.5366 10.2882 11.4241 10.1756C11.3115 10.0631 11.1589 9.9999 10.9998 9.9999H4.9998ZM4.3998 14.1999C4.3998 14.0408 4.46302 13.8882 4.57554 13.7756C4.68806 13.6631 4.84067 13.5999 4.9998 13.5999H7.39981C7.55893 13.5999 7.71155 13.6631 7.82407 13.7756C7.93659 13.8882 7.9998 14.0408 7.9998 14.1999C7.9998 14.359 7.93659 14.5116 7.82407 14.6242C7.71155 14.7367 7.55893 14.7999 7.39981 14.7999H4.9998C4.84067 14.7999 4.68806 14.7367 4.57554 14.6242C4.46302 14.5116 4.3998 14.359 4.3998 14.1999ZM3.1998 0.999902C3.1998 0.840772 3.26302 0.68816 3.37554 0.575638C3.48806 0.463117 3.64067 0.399902 3.7998 0.399902C3.95893 0.399902 4.11155 0.463117 4.22407 0.575638C4.33659 0.68816 4.3998 0.840772 4.3998 0.999902V1.5999H7.39981V0.999902C7.39981 0.840772 7.46302 0.68816 7.57554 0.575638C7.68806 0.463117 7.84067 0.399902 7.9998 0.399902C8.15894 0.399902 8.31155 0.463117 8.42407 0.575638C8.53659 0.68816 8.5998 0.840772 8.5998 0.999902V1.5999H11.5998V0.999902C11.5998 0.840772 11.663 0.68816 11.7755 0.575638C11.8881 0.463117 12.0407 0.399902 12.1998 0.399902C12.3589 0.399902 12.5115 0.463117 12.6241 0.575638C12.7366 0.68816 12.7998 0.840772 12.7998 0.999902V1.5999H13.3998C13.8772 1.5999 14.335 1.78954 14.6726 2.12711C15.0102 2.46468 15.1998 2.92251 15.1998 3.3999V9.0783C14.8086 9.2463 14.4414 9.4887 14.1222 9.8091L13.9998 9.9315V3.3999C13.9998 3.24077 13.9366 3.08816 13.8241 2.97564C13.7115 2.86312 13.5589 2.7999 13.3998 2.7999H2.5998C2.44067 2.7999 2.28806 2.86312 2.17554 2.97564C2.06302 3.08816 1.9998 3.24077 1.9998 3.3999V17.7999C1.9998 17.959 2.06302 18.1116 2.17554 18.2242C2.28806 18.3367 2.44067 18.3999 2.5998 18.3999H7.06381L6.86821 19.1835C6.833 19.3243 6.81141 19.4631 6.80341 19.5999H2.5998C2.12242 19.5999 1.66458 19.4103 1.32701 19.0727C0.989447 18.7351 0.799805 18.2773 0.799805 17.7999V3.3999C0.799805 2.92251 0.989447 2.46468 1.32701 2.12711C1.66458 1.78954 2.12242 1.5999 2.5998 1.5999H3.1998V0.999902ZM14.9718 10.6575L9.1758 16.4535C8.83815 16.7913 8.59844 17.2143 8.48221 17.6775L8.03221 19.4751C7.98783 19.6539 7.99045 19.8411 8.03981 20.0186C8.08917 20.1961 8.18359 20.3577 8.31391 20.4879C8.44422 20.6181 8.606 20.7124 8.78352 20.7616C8.96104 20.8108 9.14826 20.8132 9.32701 20.7687L11.1246 20.3199C11.5878 20.2037 12.0109 19.964 12.3486 19.6263L18.1446 13.8303C18.56 13.4083 18.7917 12.8392 18.7893 12.2471C18.7869 11.655 18.5505 11.0878 18.1318 10.6691C17.713 10.2505 17.1457 10.0144 16.5536 10.0122C15.9615 10.01 15.3925 10.242 14.9706 10.6575" fill="#D3C4B4"/>
</svg>
