<svg width="16" height="16" viewBox="0 0 16 16" fill="none" xmlns="http://www.w3.org/2000/svg">
<mask id="mask0_5762_3333" style="mask-type:alpha" maskUnits="userSpaceOnUse" x="0" y="0" width="16" height="16">
<rect width="16" height="16" fill="#D9D9D9"/>
</mask>
<g mask="url(#mask0_5762_3333)">
<path d="M3.66641 8.26699L1.06641 5.66699L3.66641 3.06699L6.26641 5.66699L3.66641 8.26699ZM5.99974 14.667V11.3337C5.32196 11.2781 4.64974 11.1975 3.98307 11.092C3.31641 10.9864 2.6553 10.8448 1.99974 10.667L2.33307 9.33366C3.26641 9.58921 4.20252 9.76422 5.14141 9.85866C6.0803 9.9531 7.03307 10.0003 7.99974 10.0003C8.96641 10.0003 9.91919 9.9531 10.8581 9.85866C11.797 9.76422 12.7331 9.58921 13.6664 9.33366L13.9997 10.667C13.3442 10.8448 12.6831 10.9864 12.0164 11.092C11.3497 11.1975 10.6775 11.2781 9.99974 11.3337V14.667H5.99974ZM3.66641 6.40033L4.39974 5.66699L3.66641 4.93366L2.93307 5.66699L3.66641 6.40033ZM7.99974 4.66699C7.44418 4.66699 6.97196 4.47255 6.58307 4.08366C6.19418 3.69477 5.99974 3.22255 5.99974 2.66699C5.99974 2.11144 6.19418 1.63921 6.58307 1.25033C6.97196 0.861437 7.44418 0.666992 7.99974 0.666992C8.5553 0.666992 9.02752 0.861437 9.41641 1.25033C9.8053 1.63921 9.99974 2.11144 9.99974 2.66699C9.99974 3.22255 9.8053 3.69477 9.41641 4.08366C9.02752 4.47255 8.5553 4.66699 7.99974 4.66699ZM7.99974 9.33366C7.63307 9.33366 7.31919 9.2031 7.05807 8.94199C6.79696 8.68088 6.66641 8.36699 6.66641 8.00033C6.66641 7.63366 6.79696 7.31977 7.05807 7.05866C7.31919 6.79755 7.63307 6.66699 7.99974 6.66699C8.36641 6.66699 8.6803 6.79755 8.94141 7.05866C9.20252 7.31977 9.33307 7.63366 9.33307 8.00033C9.33307 8.36699 9.20252 8.68088 8.94141 8.94199C8.6803 9.2031 8.36641 9.33366 7.99974 9.33366ZM7.99974 3.33366C8.18863 3.33366 8.34696 3.26977 8.47474 3.14199C8.60252 3.01421 8.66641 2.85588 8.66641 2.66699C8.66641 2.4781 8.60252 2.31977 8.47474 2.19199C8.34696 2.06421 8.18863 2.00033 7.99974 2.00033C7.81085 2.00033 7.65252 2.06421 7.52474 2.19199C7.39696 2.31977 7.33307 2.4781 7.33307 2.66699C7.33307 2.85588 7.39696 3.01421 7.52474 3.14199C7.65252 3.26977 7.81085 3.33366 7.99974 3.33366ZM11.3664 8.00033L10.2331 6.00033L11.3664 4.00033H13.6331L14.7664 6.00033L13.6331 8.00033H11.3664ZM12.1331 6.66699H12.8664L13.2331 6.00033L12.8664 5.33366H12.1331L11.7664 6.00033L12.1331 6.66699Z" fill="#B2C649"/>
</g>
</svg>
