<svg width="40" height="40" viewBox="0 0 40 40" fill="none" xmlns="http://www.w3.org/2000/svg">
<circle cx="20" cy="20" r="16" fill="#E74C3C"/>
<g clip-path="url(#clip0_5003_2845)">
<path d="M20 35C28.2843 35 35 28.2843 35 20C35 11.7157 28.2843 5 20 5C11.7157 5 5 11.7157 5 20C5 28.2843 11.7157 35 20 35Z" stroke="#4F4539" stroke-width="2" stroke-miterlimit="10"/>
<path d="M14.375 18.75C15.4105 18.75 16.25 17.9105 16.25 16.875C16.25 15.8395 15.4105 15 14.375 15C13.3395 15 12.5 15.8395 12.5 16.875C12.5 17.9105 13.3395 18.75 14.375 18.75Z" fill="#4F4539"/>
<path d="M25.625 18.75C26.6605 18.75 27.5 17.9105 27.5 16.875C27.5 15.8395 26.6605 15 25.625 15C24.5895 15 23.75 15.8395 23.75 16.875C23.75 17.9105 24.5895 18.75 25.625 18.75Z" fill="#4F4539"/>
<path d="M26.25 27.5C24.9531 25.2578 22.7766 23.75 20 23.75C17.2234 23.75 15.0469 25.2578 13.75 27.5" stroke="#4F4539" stroke-width="2" stroke-linecap="round" stroke-linejoin="round"/>
</g>
<defs>
<clipPath id="clip0_5003_2845">
<rect width="40" height="40" fill="white"/>
</clipPath>
</defs>
</svg>
