<svg width="288" height="208" viewBox="0 0 288 208" fill="none" xmlns="http://www.w3.org/2000/svg">
<circle opacity="0.5" cx="136" cy="104" r="104" fill="#DDC2A1"/>
<mask id="mask0_5116_3050" style="mask-type:alpha" maskUnits="userSpaceOnUse" x="0" y="0" width="144" height="144">
<rect width="144" height="144" fill="#D9D9D9"/>
</mask>
<g mask="url(#mask0_5116_3050)">
<path d="M62.9902 89.9988H80.9902L77.5402 70.6488C79.5402 69.6488 81.1152 68.1988 82.2652 66.2988C83.4152 64.3988 83.9902 62.2988 83.9902 59.9988C83.9902 56.6988 82.8152 53.8738 80.4652 51.5238C78.1152 49.1738 75.2902 47.9988 71.9902 47.9988C68.6902 47.9988 65.8652 49.1738 63.5152 51.5238C61.1652 53.8738 59.9902 56.6988 59.9902 59.9988C59.9902 62.2988 60.5652 64.3988 61.7152 66.2988C62.8652 68.1988 64.4402 69.6488 66.4402 70.6488L62.9902 89.9988ZM71.9902 131.999C58.0902 128.499 46.6152 120.524 37.5652 108.074C28.5152 95.6238 23.9902 81.7988 23.9902 66.5988V29.9988L71.9902 11.9988L119.99 29.9988V66.5988C119.99 81.7988 115.465 95.6238 106.415 108.074C97.3652 120.524 85.8902 128.499 71.9902 131.999Z" fill="#3E2E16"/>
</g>
<mask id="mask1_5116_3050" style="mask-type:alpha" maskUnits="userSpaceOnUse" x="160" y="80" width="128" height="128">
<rect width="128" height="128" transform="matrix(-1 0 0 1 288 80)" fill="#D9D9D9"/>
</mask>
<g mask="url(#mask1_5116_3050)">
<path d="M250.666 160C246.222 160 242.444 158.444 239.333 155.333C236.222 152.222 234.666 148.444 234.666 144C234.666 139.556 236.222 135.778 239.333 132.667C242.444 129.556 246.222 128 250.666 128C255.11 128 258.888 129.556 261.999 132.667C265.11 135.778 266.666 139.556 266.666 144C266.666 148.444 265.11 152.222 261.999 155.333C258.888 158.444 255.11 160 250.666 160ZM250.666 176C259.555 176 267.11 172.889 273.333 166.667C279.555 160.444 282.666 152.889 282.666 144C282.666 135.111 279.555 127.556 273.333 121.333C267.11 115.111 259.555 112 250.666 112C243.466 112 237.177 114.044 231.799 118.133C226.422 122.222 222.666 127.289 220.533 133.333H175.866L165.333 143.867L183.999 165.2L197.333 154.667L207.999 165.333L218.666 154.667H220.533C222.755 161.067 226.622 166.222 232.133 170.133C237.644 174.044 243.822 176 250.666 176Z" fill="#3E2E16"/>
</g>
</svg>
