<svg width="40" height="44" viewBox="0 0 40 44" fill="none" xmlns="http://www.w3.org/2000/svg">
<g clip-path="url(#clip0_4988_2071)" filter="url(#filter0_d_4988_2071)">
<path d="M20 35C28.2843 35 35 28.2843 35 20C35 11.7157 28.2843 5 20 5C11.7157 5 5 11.7157 5 20C5 28.2843 11.7157 35 20 35Z" stroke="#4F4539" stroke-width="2" stroke-miterlimit="10"/>
<path d="M13.75 25H26.25" stroke="#4F4539" stroke-width="2" stroke-linecap="round" stroke-linejoin="round"/>
<path d="M14.375 18.75C15.4105 18.75 16.25 17.9105 16.25 16.875C16.25 15.8395 15.4105 15 14.375 15C13.3395 15 12.5 15.8395 12.5 16.875C12.5 17.9105 13.3395 18.75 14.375 18.75Z" fill="#4F4539"/>
<path d="M25.625 18.75C26.6605 18.75 27.5 17.9105 27.5 16.875C27.5 15.8395 26.6605 15 25.625 15C24.5895 15 23.75 15.8395 23.75 16.875C23.75 17.9105 24.5895 18.75 25.625 18.75Z" fill="#4F4539"/>
</g>
<defs>
<filter id="filter0_d_4988_2071" x="-4" y="0" width="48" height="48" filterUnits="userSpaceOnUse" color-interpolation-filters="sRGB">
<feFlood flood-opacity="0" result="BackgroundImageFix"/>
<feColorMatrix in="SourceAlpha" type="matrix" values="0 0 0 0 0 0 0 0 0 0 0 0 0 0 0 0 0 0 127 0" result="hardAlpha"/>
<feOffset dy="4"/>
<feGaussianBlur stdDeviation="2"/>
<feComposite in2="hardAlpha" operator="out"/>
<feColorMatrix type="matrix" values="0 0 0 0 0 0 0 0 0 0 0 0 0 0 0 0 0 0 0.25 0"/>
<feBlend mode="normal" in2="BackgroundImageFix" result="effect1_dropShadow_4988_2071"/>
<feBlend mode="normal" in="SourceGraphic" in2="effect1_dropShadow_4988_2071" result="shape"/>
</filter>
<clipPath id="clip0_4988_2071">
<rect width="40" height="40" fill="white"/>
</clipPath>
</defs>
</svg>
